<svg xmlns="http://www.w3.org/2000/svg" width="200" height="48" viewBox="0 0 200 48" fill="none">
  <path d="M22 10C15.3726 10 10 15.3726 10 22C10 28.6274 15.3726 34 22 34C28.6274 34 34 28.6274 34 22C34 15.3726 28.6274 10 22 10ZM22 30C17.5817 30 14 26.4183 14 22C14 17.5817 17.5817 14 22 14C26.4183 14 30 17.5817 30 22C30 26.4183 26.4183 30 22 30Z" fill="#2563EB"/>
  <path d="M22 18C19.7909 18 18 19.7909 18 22C18 24.2091 19.7909 26 22 26C24.2091 26 26 24.2091 26 22C26 19.7909 24.2091 18 22 18Z" fill="#2563EB"/>
  <path d="M46.336 33V11.8H54.256C56.096 11.8 57.632 12.152 58.864 12.856C60.096 13.544 61.016 14.512 61.624 15.76C62.248 17.008 62.56 18.448 62.56 20.08C62.56 21.696 62.248 23.12 61.624 24.352C61.016 25.584 60.096 26.544 58.864 27.232C57.632 27.92 56.096 28.264 54.256 28.264H49.904V33H46.336ZM49.904 25.24H53.912C55.496 25.24 56.68 24.856 57.464 24.088C58.248 23.304 58.64 21.936 58.64 19.984C58.64 18.032 58.248 16.68 57.464 15.928C56.68 15.16 55.496 14.776 53.912 14.776H49.904V25.24Z" fill="#171717"/>
  <path d="M69.384 33.24C68.136 33.24 67.04 33.016 66.096 32.568C65.152 32.104 64.416 31.448 63.888 30.6C63.376 29.736 63.12 28.712 63.12 27.528C63.12 26.44 63.344 25.512 63.792 24.744C64.24 23.976 64.848 23.344 65.616 22.848C66.384 22.352 67.248 21.976 68.208 21.72C69.184 21.448 70.192 21.272 71.232 21.192C72.464 21.096 73.44 21 74.16 20.904C74.88 20.792 75.384 20.632 75.672 20.424C75.976 20.216 76.128 19.92 76.128 19.536V19.464C76.128 18.6 75.864 17.936 75.336 17.472C74.824 17.008 74.072 16.776 73.08 16.776C72.04 16.776 71.216 17 70.608 17.448C70 17.88 69.608 18.408 69.432 19.032L66.144 18.72C66.4 17.632 66.864 16.712 67.536 15.96C68.208 15.192 69.048 14.616 70.056 14.232C71.08 13.832 72.224 13.632 73.488 13.632C74.352 13.632 75.2 13.744 76.032 13.968C76.88 14.176 77.64 14.52 78.312 15C79 15.464 79.544 16.08 79.944 16.848C80.344 17.6 80.544 18.52 80.544 19.608V33H76.344V30.432H76.224C75.952 31.008 75.576 31.52 75.096 31.968C74.616 32.4 74.024 32.744 73.32 33C72.616 33.16 72.056 33.24 71.4 33.24H69.384ZM70.464 30.192H72.312C73.272 30.192 74.112 30.016 74.832 29.664C75.552 29.296 76.104 28.808 76.488 28.2C76.888 27.576 77.088 26.896 77.088 26.16V22.968C76.928 23.096 76.664 23.208 76.296 23.304C75.944 23.4 75.544 23.48 75.096 23.544C74.648 23.608 74.208 23.664 73.776 23.712C73.344 23.76 72.968 23.8 72.648 23.832C71.944 23.912 71.304 24.056 70.728 24.264C70.168 24.456 69.72 24.736 69.384 25.104C69.064 25.456 68.904 25.92 68.904 26.496C68.904 27.296 69.176 27.896 69.72 28.296C70.28 28.696 70.992 30.192 72.312 30.192H70.464Z" fill="#171717"/>
  <path d="M83.144 33V13.8H87.56V22.392H87.68L94.384 13.8H99.568L93.248 21.864L99.832 33H94.744L90.272 25.168L87.56 28.36V33H83.144Z" fill="#171717"/>
  <path d="M104.808 33.24C103.32 33.24 102.024 32.944 100.92 32.352C99.832 31.744 98.984 30.888 98.376 29.784C97.784 28.664 97.488 27.352 97.488 25.848C97.488 24.376 97.784 23.08 98.376 21.96C98.984 20.84 99.832 19.976 100.92 19.368C102.024 18.76 103.32 18.456 104.808 18.456C106.28 18.456 107.56 18.76 108.648 19.368C109.736 19.976 110.576 20.84 111.168 21.96C111.776 23.08 112.08 24.376 112.08 25.848C112.08 27.352 111.776 28.664 111.168 29.784C110.576 30.888 109.736 31.744 108.648 32.352C107.56 32.944 106.28 33.24 104.808 33.24ZM104.808 29.664C105.864 29.664 106.712 29.272 107.352 28.488C107.992 27.704 108.312 26.648 108.312 25.32C108.312 24.008 107.992 22.968 107.352 22.2C106.712 21.416 105.864 21.024 104.808 21.024C103.736 21.024 102.88 21.416 102.24 22.2C101.6 22.968 101.28 24.008 101.28 25.32C101.28 26.648 101.6 27.704 102.24 28.488C102.88 29.272 103.736 29.664 104.808 29.664Z" fill="#171717"/>
  <path d="M114.656 33V13.8H118.424V16.272H118.592C118.928 15.408 119.504 14.736 120.32 14.256C121.136 13.76 122.096 13.512 123.2 13.512C124.32 13.512 125.296 13.768 126.128 14.28C126.976 14.776 127.576 15.448 127.928 16.296H128.072C128.456 15.464 129.096 14.792 129.992 14.28C130.904 13.768 131.968 13.512 133.184 13.512C134.752 13.512 136.048 14 137.072 14.976C138.096 15.936 138.608 17.432 138.608 19.464V33H134.816V20.184C134.816 19.064 134.536 18.248 133.976 17.736C133.432 17.224 132.752 16.968 131.936 16.968C130.992 16.968 130.248 17.272 129.704 17.88C129.16 18.472 128.888 19.264 128.888 20.256V33H125.12V20.016C125.12 19.088 124.848 18.336 124.304 17.76C123.776 17.184 123.088 16.896 122.24 16.896C121.664 16.896 121.136 17.04 120.656 17.328C120.192 17.616 119.816 18.016 119.528 18.528C119.256 19.04 119.12 19.648 119.12 20.352V33H114.656Z" fill="#171717"/>
  <path d="M152.168 33V11.8H159.08C160.728 11.8 162.16 12.136 163.376 12.808C164.608 13.464 165.552 14.4 166.208 15.616C166.88 16.816 167.216 18.24 167.216 19.888C167.216 21.52 166.88 22.944 166.208 24.16C165.552 25.36 164.608 26.296 163.376 26.968C162.16 27.624 160.728 27.952 159.08 27.952H152.168V33ZM155.736 24.976H158.736C159.696 24.976 160.504 24.784 161.16 24.4C161.832 24 162.336 23.432 162.672 22.696C163.024 21.944 163.2 20.992 163.2 19.84C163.2 18.688 163.024 17.744 162.672 17.008C162.336 16.256 161.832 15.688 161.16 15.304C160.504 14.904 159.696 14.704 158.736 14.704H155.736V24.976Z" fill="#171717"/>
  <path d="M169.792 33V18.696H173.176V21.312H173.32C173.64 20.448 174.168 19.776 174.904 19.296C175.64 18.816 176.496 18.576 177.472 18.576C177.744 18.576 178.032 18.592 178.336 18.624C178.64 18.656 178.904 18.696 179.128 18.744V21.912C178.888 21.832 178.576 21.768 178.192 21.72C177.824 21.656 177.488 21.624 177.184 21.624C176.48 21.624 175.856 21.768 175.312 22.056C174.784 22.344 174.36 22.744 174.04 23.256C173.736 23.768 173.584 24.36 173.584 25.032V33H169.792Z" fill="#171717"/>
  <path d="M181.6 33V18.696H185.392V33H181.6ZM183.496 16.68C182.872 16.68 182.336 16.48 181.888 16.08C181.456 15.664 181.24 15.168 181.24 14.592C181.24 14 181.456 13.504 181.888 13.104C182.336 12.688 182.872 12.48 183.496 12.48C184.136 12.48 184.672 12.688 185.104 13.104C185.552 13.504 185.776 14 185.776 14.592C185.776 15.168 185.552 15.664 185.104 16.08C184.672 16.48 184.136 16.68 183.496 16.68Z" fill="#171717"/>
</svg> 